<svg width="101" height="977" viewBox="0 0 101 977" fill="none" xmlns="http://www.w3.org/2000/svg">
<path d="M49.9826 976.153C37.2841 976.153 24.5959 971.323 14.9263 961.653C-4.40252 942.325 -4.40252 910.88 14.9263 891.551C24.2941 882.184 36.7428 877.031 49.9826 877.031C63.2224 877.031 75.6711 882.184 85.0389 891.551C104.368 910.88 104.368 942.325 85.0389 961.653C75.3797 971.313 62.6811 976.153 49.9826 976.153ZM17.5285 959.051C35.4209 976.944 64.5339 976.944 82.4263 959.051C100.319 941.159 100.319 912.046 82.4263 894.153C73.7559 885.483 62.2335 880.716 49.9722 880.716C37.7108 880.716 26.1884 885.493 17.5181 894.153C-0.374391 912.046 -0.374391 941.159 17.5181 959.051H17.5285Z" fill="#EBF29D"/>
<path d="M49.3269 945.156C49.5039 945.582 49.9202 945.832 50.3574 945.832C50.5031 945.832 50.6489 945.801 50.7946 945.749C54.2919 944.281 57.4769 942.012 59.9958 939.181C60.4017 938.723 60.3601 938.015 59.9021 937.609C59.4441 937.203 58.7364 937.245 58.3304 937.703C56.0301 940.295 53.1261 942.366 49.9306 943.698C49.3686 943.938 49.0979 944.594 49.3373 945.156H49.3269Z" fill="#EBF29D"/>
<path d="M68.8729 909.464L50.3872 902.074C50.1166 901.97 49.8251 901.97 49.5545 902.074L31.0688 909.464C30.642 909.631 30.3713 910.037 30.3713 910.495V923.735C30.3922 935.954 38.1154 946.998 49.5857 951.203C49.7106 951.245 49.8355 951.265 49.9708 951.265C50.1061 951.265 50.231 951.245 50.3559 951.203C61.8263 946.987 69.5495 935.954 69.5703 923.735V910.495C69.5703 910.037 69.2997 909.631 68.8729 909.464ZM67.3428 923.735C67.322 934.851 60.3482 944.979 49.9812 948.965C39.6142 944.979 32.63 934.851 32.6092 923.735V911.255L49.9812 904.312L67.3428 911.255V923.735Z" fill="#EBF29D"/>
<path d="M42.2585 911.203C41.9878 911.088 41.686 911.088 41.4049 911.203L37.0021 912.962C36.5754 913.128 36.3047 913.534 36.3047 913.992V918.686C36.3047 919.3 36.8043 919.8 37.4184 919.8C38.0325 919.8 38.5322 919.3 38.5322 918.686V914.752L42.2272 913.274C42.5082 913.159 42.7164 912.951 42.8413 912.67C42.9558 912.4 42.9558 912.098 42.8413 911.817C42.7268 911.536 42.5187 911.327 42.248 911.203H42.2585Z" fill="#EBF29D"/>
<path d="M78.1259 898.452C70.6109 890.927 60.6082 886.794 49.9706 886.794C39.333 886.794 29.3407 890.937 21.8152 898.452C6.29596 913.971 6.29596 939.233 21.8152 954.763C29.5801 962.528 39.7701 966.4 49.9706 966.4C60.171 966.4 70.3611 962.517 78.1259 954.763C93.6452 939.244 93.6452 913.982 78.1259 898.452ZM72.6198 923.735C72.651 937.859 63.6267 950.214 50.1684 954.492C50.0434 954.534 49.9081 954.534 49.7728 954.492C36.3144 950.214 27.2902 937.859 27.3214 923.735V908.111C27.3214 907.851 27.4775 907.612 27.7273 907.508L49.7312 898.712C49.8041 898.681 49.8873 898.671 49.9706 898.671C50.0539 898.671 50.1371 898.681 50.21 898.712L72.2138 907.518C72.4636 907.612 72.6198 907.851 72.6198 908.122V923.745V923.735Z" fill="#EBF29D"/>
<path d="M50.3967 853.841C23.074 853.841 0.851562 831.608 0.851562 804.296C0.851562 776.983 23.0844 754.75 50.3967 754.75C77.709 754.75 99.9418 776.983 99.9418 804.296C99.9418 831.608 77.709 853.841 50.3967 853.841ZM50.3967 758.05C24.8955 758.05 4.15108 778.794 4.15108 804.296C4.15108 829.797 24.8955 850.541 50.3967 850.541C75.8979 850.541 96.6423 829.797 96.6423 804.296C96.6423 778.794 75.8979 758.05 50.3967 758.05Z" fill="#11F8A5"/>
<path d="M82.7174 768.949L67.3792 784.287L70.3968 787.305L85.7351 771.966L82.7174 768.949Z" fill="#11F8A5"/>
<path d="M29.9242 821.741L14.5859 837.079L17.6035 840.096L32.9418 824.758L29.9242 821.741Z" fill="#11F8A5"/>
<path d="M70.8616 821.756L67.844 824.773L83.1822 840.111L86.1999 837.094L70.8616 821.756Z" fill="#11F8A5"/>
<path d="M17.5999 768.487L14.5823 771.505L29.9132 786.836L32.9308 783.818L17.5999 768.487Z" fill="#11F8A5"/>
<path d="M62.4808 805.628C63.48 804.629 63.48 803.015 62.4808 802.026L60.3574 799.913C59.3582 798.914 57.7449 798.914 56.7561 799.913L55.6111 801.058L54.2892 799.736C53.29 798.737 51.6766 798.737 50.6878 799.736L49.5429 800.892L48.221 799.559C47.2217 798.56 45.6084 798.56 44.6195 799.559L37.5937 806.585C37.5417 806.637 37.5417 806.721 37.5937 806.783C38.5305 807.72 40.0606 807.72 41.0078 806.783L45.5355 802.255C46.0247 801.766 46.8158 801.766 47.305 802.255L47.6381 802.588C47.7005 802.651 47.7005 802.745 47.6381 802.807L43.8597 806.585C43.8077 806.637 43.8077 806.721 43.8597 806.783C44.7965 807.72 46.3266 807.72 47.2738 806.783L51.6142 802.443C52.1034 801.953 52.8945 801.953 53.3837 802.443L53.7167 802.776C53.7688 802.828 53.7688 802.911 53.7167 802.974L50.0737 806.617C50.0217 806.669 50.0217 806.752 50.0737 806.814C51.0105 807.751 52.5405 807.751 53.4877 806.814L57.6824 802.62C58.1716 802.13 58.9626 802.13 59.4519 802.62L60.1701 803.338C60.4511 803.619 60.4511 804.087 60.1701 804.368L60.0556 804.483C59.7745 804.764 59.3062 804.764 59.0251 804.483L58.0987 803.556C58.0467 803.504 57.9634 803.504 57.901 803.556L56.2981 805.159C56.246 805.211 56.246 805.295 56.2981 805.357L57.7449 806.804C58.7441 807.803 60.3574 807.803 61.3462 806.804L62.4912 805.659L62.4808 805.628Z" fill="#11F8A5"/>
<path d="M50.3978 766.304C29.414 766.304 12.4062 783.312 12.4062 804.295C12.4062 825.279 29.414 842.287 50.3978 842.287C71.3816 842.287 88.3893 825.279 88.3893 804.295C88.3893 783.312 71.3816 766.304 50.3978 766.304ZM51.9486 778.035C58.0481 778.388 63.5855 780.824 67.8738 784.634L62.3885 790.119C59.5261 787.694 55.9143 786.122 51.9486 785.789V778.035ZM48.8572 778.035V785.789C44.8916 786.112 41.2798 787.694 38.4174 790.119L32.932 784.634C37.2204 780.824 42.7578 778.388 48.8572 778.035ZM30.7463 786.819L36.2316 792.305C33.8064 795.167 32.2347 798.779 31.9016 802.745H24.1472C24.5011 796.645 26.9367 791.108 30.7463 786.819ZM24.1472 805.836H31.9016C32.2243 809.802 33.8064 813.413 36.2316 816.276L30.7463 821.761C26.9367 817.473 24.5011 811.935 24.1472 805.836ZM48.8572 830.546C42.7578 830.192 37.2204 827.757 32.932 823.947L38.4174 818.462C41.2798 820.887 44.8916 822.459 48.8572 822.792V830.546ZM34.4309 804.285C34.4309 795.469 41.5817 788.318 50.3978 788.318C59.2139 788.318 66.3646 795.469 66.3646 804.285C66.3646 813.101 59.2139 820.252 50.3978 820.252C41.5817 820.252 34.4309 813.101 34.4309 804.285ZM51.9486 830.546V822.792C55.9143 822.469 59.5261 820.887 62.3885 818.462L67.8738 823.947C63.5855 827.757 58.0481 830.192 51.9486 830.546ZM70.0596 821.761L64.5743 816.276C66.9995 813.413 68.5712 809.802 68.9043 805.836H76.6587C76.3048 811.935 73.8692 817.473 70.0596 821.761ZM68.9043 802.745C68.5816 798.779 66.9995 795.167 64.5743 792.305L70.0596 786.819C73.8692 791.108 76.3048 796.645 76.6587 802.745H68.9043Z" fill="#11F8A5"/>
<path d="M15.4923 709.48C-3.99743 689.99 -3.99743 658.281 15.4923 638.792C34.982 619.302 66.6907 619.302 86.1804 638.792C105.67 658.281 105.67 689.99 86.1804 709.48C66.6907 728.97 34.982 728.97 15.4923 709.48ZM83.8248 641.147C65.6338 622.956 36.039 622.956 17.8527 641.147C-0.338378 659.338 -0.338378 688.933 17.8527 707.119C36.0437 725.31 65.6385 725.31 83.8248 707.119C102.016 688.928 102.016 659.334 83.8248 641.147Z" fill="white"/>
<path d="M84.364 663.533C84.1887 663.358 84.0465 663.135 83.9659 662.888C82.2359 657.769 79.411 653.234 75.5718 649.394C71.7374 645.56 67.1968 642.735 62.0779 641C61.4001 640.768 60.9451 640.138 60.9451 639.422V627.274C60.9451 626.762 61.182 626.279 61.5849 625.961C61.9925 625.644 62.5186 625.535 63.0116 625.658C71.7611 627.848 79.7712 632.388 86.1698 638.792C92.5685 645.195 97.1091 653.2 99.2989 661.95C99.4221 662.448 99.3084 662.974 98.9955 663.381C98.678 663.789 98.1945 664.021 97.6826 664.021H85.5347C85.0797 664.021 84.6626 663.836 84.3545 663.528L84.364 663.533ZM77.9275 647.039C81.8425 650.954 84.7953 655.542 86.7197 660.689H95.5071C93.2984 653.333 89.2839 646.612 83.819 641.147C78.3541 635.682 71.6332 631.668 64.2818 629.464V638.251C69.4292 640.171 74.0172 643.124 77.9322 647.043L77.9275 647.039Z" fill="white"/>
<path d="M15.4909 709.48C9.09225 703.081 4.54685 695.071 2.3571 686.321C2.23386 685.824 2.34762 685.298 2.66045 684.895C2.97801 684.487 3.46144 684.255 3.97333 684.255H16.1212C16.8369 684.255 17.4721 684.71 17.6996 685.388C19.4296 690.507 22.2544 695.043 26.0936 698.882C29.928 702.716 34.4687 705.541 39.5876 707.276C40.2654 707.503 40.7204 708.138 40.7204 708.854V721.002C40.7204 721.514 40.4834 721.997 40.0805 722.315C39.6729 722.632 39.1468 722.741 38.6491 722.618C29.8996 720.428 21.8942 715.888 15.4909 709.489V709.48ZM6.15836 687.582C8.36707 694.938 12.3816 701.659 17.8465 707.124C23.3114 712.589 30.0323 716.603 37.3884 718.812V710.025C32.241 708.105 27.653 705.152 23.738 701.237C19.823 697.322 16.8701 692.734 14.9458 687.587H6.15836V687.582Z" fill="white"/>
<path d="M61.4411 722.173C61.1283 721.86 60.9529 721.438 60.9529 720.993V708.845C60.9529 708.129 61.4079 707.494 62.0857 707.266C67.2046 705.536 71.7405 702.712 75.5796 698.872C79.4188 695.033 82.2389 690.497 83.9737 685.378C84.2012 684.701 84.8363 684.246 85.552 684.246H97.6999C98.2118 684.246 98.6953 684.483 99.0128 684.885C99.3304 685.288 99.4394 685.819 99.3162 686.312C97.1217 695.062 92.581 703.067 86.1824 709.47C79.7838 715.874 71.7737 720.414 63.0241 722.604C62.5265 722.727 62.0004 722.614 61.5975 722.301C61.5453 722.253 61.4932 722.211 61.4458 722.163L61.4411 722.173ZM64.2849 710.02V718.808C71.641 716.599 78.3619 712.584 83.8268 707.119C89.2917 701.655 93.3015 694.934 95.5149 687.578H86.7275C84.8079 692.725 81.855 697.308 77.9353 701.228C74.0203 705.143 69.4323 708.101 64.2849 710.02Z" fill="white"/>
<path d="M2.79389 663.533C2.74649 663.486 2.69911 663.433 2.66119 663.381C2.34363 662.978 2.23461 662.448 2.35784 661.95C4.54759 653.2 9.08825 645.19 15.4916 638.792C21.895 632.393 29.9003 627.848 38.6498 625.658C39.1475 625.535 39.6736 625.648 40.0765 625.961C40.4794 626.279 40.7164 626.762 40.7164 627.274V639.422C40.7164 640.138 40.2614 640.773 39.5836 641C34.4647 642.73 29.9288 645.555 26.0896 649.394C22.2552 653.229 19.4303 657.769 17.6956 662.888C17.4681 663.566 16.833 664.021 16.1173 664.021H3.96936C3.52382 664.021 3.09723 663.846 2.78914 663.538L2.79389 663.533ZM37.3844 629.464C30.0283 631.673 23.3074 635.687 17.8425 641.152C12.3776 646.617 8.36781 653.338 6.15436 660.694H14.9418C16.8614 655.547 19.8142 650.963 23.734 647.043C27.649 643.128 32.237 640.176 37.3844 638.251V629.464Z" fill="white"/>
<path d="M77.9316 647.039C62.9921 632.099 38.6773 632.094 23.7377 647.039C8.79339 661.983 8.79813 686.293 23.7377 701.233C38.6773 716.172 62.9873 716.177 77.9316 701.233C92.876 686.288 92.8712 661.978 77.9316 647.039Z" fill="white"/>
<path d="M64.6544 687.813L37.1268 687.996C35.9672 688.004 35.0333 688.95 35.041 690.109L35.0475 691.091C35.0552 692.25 36.0015 693.184 37.1611 693.176L64.6888 692.994C65.8484 692.986 66.7822 692.04 66.7745 690.88L66.768 689.899C66.7603 688.739 65.814 687.806 64.6544 687.813Z" fill="#191D0A"/>
<path d="M40.8773 671.197C40.5787 671.197 40.2754 671.131 40.0005 670.998L37.8534 669.96C36.9197 669.505 36.4931 668.401 36.8817 667.439L37.8676 664.984C38.171 664.235 38.8867 663.746 39.6924 663.742C40.0384 663.742 40.3797 663.827 40.683 664.002L43.2425 665.462C43.7212 665.732 44.0672 666.202 44.1904 666.742C44.3136 667.282 44.2046 667.851 43.8918 668.306L42.4889 670.339C42.1239 670.87 41.5172 671.193 40.8726 671.193L40.8773 671.197Z" fill="#191D0A"/>
<path d="M60.6922 671.065C60.0476 671.065 59.4362 670.756 59.0665 670.23L57.6777 668.273C57.3554 667.823 57.2417 667.254 57.3555 666.713C57.4692 666.173 57.8105 665.699 58.2892 665.42L60.9292 663.87C61.2278 663.694 61.5691 663.6 61.9151 663.595C62.7208 663.59 63.446 664.069 63.7588 664.813L64.7542 667.197C65.1523 668.154 64.7399 669.268 63.8157 669.733L61.5691 670.856C61.2989 670.989 60.9955 671.065 60.6969 671.065H60.6922Z" fill="#191D0A"/>
<path d="M38.7148 686.156C37.5061 686.165 36.4208 685.407 36.0084 684.269L31.4156 671.628C31.1218 671.771 30.8089 671.88 30.4914 671.96C30.1169 672.055 29.7377 672.102 29.3538 672.102C29.1311 672.102 28.913 672.093 28.6997 672.064C26.3062 671.761 24.4909 669.709 24.4767 667.292C24.4577 664.618 26.619 662.429 29.2922 662.41C31.9654 662.391 34.1552 664.552 34.1694 667.225C34.1694 667.841 34.0651 668.434 33.8471 668.988C33.7286 669.292 33.5817 669.581 33.411 669.856L42.1463 674.084L48.8294 664.4C48.5497 664.282 48.2795 664.135 48.0236 663.96C47.5401 663.633 47.1183 663.225 46.777 662.746C46.1988 661.931 45.886 660.969 45.8812 659.973C45.8623 657.3 48.0236 655.111 50.6968 655.092C50.8153 655.092 50.9385 655.092 51.057 655.101C53.4506 655.262 55.3844 657.182 55.5597 659.575C55.6403 660.708 55.3417 661.794 54.6971 662.718C54.3559 663.201 53.9387 663.614 53.46 663.941C53.2088 664.116 52.9387 664.263 52.659 664.381L59.4605 673.965L68.0536 669.666C67.8925 669.358 67.7645 669.036 67.6697 668.699C67.556 668.292 67.4944 667.865 67.4944 667.434C67.4944 667.239 67.5038 667.045 67.5228 666.856C67.7977 664.419 69.8547 662.571 72.3051 662.557C74.9783 662.538 77.1681 664.699 77.1823 667.372C77.2013 669.922 75.2201 672.064 72.6749 672.24L72.3715 672.249C71.8786 672.249 71.3952 672.183 70.9259 672.041C70.6226 671.946 70.3287 671.827 70.0538 671.676L65.7406 684.07C65.3473 685.212 64.2666 685.98 63.0579 685.99L38.7148 686.151V686.156Z" fill="#191D0A"/>
<path d="M49.9826 603C37.2841 603 24.5959 598.171 14.9263 588.501C-4.40252 569.172 -4.40252 537.728 14.9263 518.399C24.2941 509.031 36.7428 503.879 49.9826 503.879C63.2224 503.879 75.6711 509.031 85.0389 518.399C104.368 537.728 104.368 569.172 85.0389 588.501C75.3797 598.16 62.6811 603 49.9826 603ZM17.5285 585.899C35.4209 603.791 64.5339 603.791 82.4263 585.899C100.319 568.006 100.319 538.893 82.4263 521.001C73.7559 512.33 62.2335 507.563 49.9722 507.563C37.7108 507.563 26.1884 512.341 17.5181 521.001C-0.374391 538.893 -0.374391 568.006 17.5181 585.899H17.5285Z" fill="#EBF29D"/>
<path d="M49.3269 571.993C49.5039 572.42 49.9202 572.669 50.3574 572.669C50.5031 572.669 50.6489 572.638 50.7946 572.586C54.2919 571.118 57.4769 568.849 59.9958 566.018C60.4017 565.56 60.3601 564.853 59.9021 564.447C59.4441 564.041 58.7364 564.082 58.3304 564.54C56.0301 567.132 53.1261 569.203 49.9306 570.536C49.3686 570.775 49.0979 571.431 49.3373 571.993H49.3269Z" fill="#EBF29D"/>
<path d="M68.8729 536.312L50.3872 528.922C50.1166 528.818 49.8251 528.818 49.5545 528.922L31.0688 536.312C30.642 536.479 30.3713 536.885 30.3713 537.343V550.582C30.3922 562.802 38.1154 573.846 49.5857 578.051C49.7106 578.092 49.8355 578.113 49.9708 578.113C50.1061 578.113 50.231 578.092 50.3559 578.051C61.8263 573.835 69.5495 562.802 69.5703 550.582V537.343C69.5703 536.885 69.2997 536.479 68.8729 536.312ZM67.3428 550.582C67.322 561.699 60.3482 571.826 49.9812 575.813C39.6142 571.826 32.63 561.699 32.6092 550.582V538.102L49.9812 531.16L67.3428 538.102V550.582Z" fill="#EBF29D"/>
<path d="M42.2585 538.05C41.9878 537.936 41.686 537.936 41.4049 538.05L37.0021 539.809C36.5754 539.976 36.3047 540.382 36.3047 540.84V545.534C36.3047 546.148 36.8043 546.648 37.4184 546.648C38.0325 546.648 38.5322 546.148 38.5322 545.534V541.6L42.2272 540.122C42.5082 540.007 42.7164 539.799 42.8413 539.518C42.9558 539.247 42.9558 538.945 42.8413 538.664C42.7268 538.383 42.5187 538.175 42.248 538.05H42.2585Z" fill="#EBF29D"/>
<path d="M78.1259 525.3C70.6109 517.774 60.6082 513.642 49.9706 513.642C39.333 513.642 29.3407 517.785 21.8152 525.3C6.29596 540.819 6.29596 566.081 21.8152 581.611C29.5801 589.375 39.7701 593.247 49.9706 593.247C60.171 593.247 70.3611 589.365 78.1259 581.611C93.6452 566.091 93.6452 540.829 78.1259 525.3ZM72.6198 550.582C72.651 564.707 63.6267 577.062 50.1684 581.34C50.0434 581.382 49.9081 581.382 49.7728 581.34C36.3144 577.062 27.2902 564.707 27.3214 550.582V534.959C27.3214 534.699 27.4775 534.459 27.7273 534.355L49.7312 525.56C49.8041 525.529 49.8873 525.518 49.9706 525.518C50.0539 525.518 50.1371 525.529 50.21 525.56L72.2138 534.366C72.4636 534.459 72.6198 534.699 72.6198 534.969V550.593V550.582Z" fill="#EBF29D"/>
<path d="M50.1272 476.389C22.8045 476.389 0.582031 454.156 0.582031 426.844C0.582031 399.532 22.8149 377.299 50.1272 377.299C77.4394 377.299 99.6723 399.532 99.6723 426.844C99.6723 454.156 77.4394 476.389 50.1272 476.389ZM50.1272 380.599C24.626 380.599 3.88161 401.343 3.88161 426.844C3.88161 452.345 24.626 473.09 50.1272 473.09C75.6283 473.09 96.3727 452.345 96.3727 426.844C96.3727 401.343 75.6283 380.599 50.1272 380.599Z" fill="white"/>
<path d="M66.1977 395.899C65.9479 395.899 65.698 395.847 65.4691 395.733C60.6707 393.36 55.508 392.152 50.1267 392.152C44.7455 392.152 39.5828 393.36 34.7844 395.733C34.1495 396.045 33.3897 395.92 32.89 395.421L24.3758 386.906C24.0115 386.542 23.8449 386.042 23.9074 385.532C23.9698 385.022 24.2613 384.575 24.6985 384.315C32.3696 379.714 41.1649 377.289 50.1372 377.289C59.1094 377.289 67.9047 379.724 75.5759 384.315C76.013 384.575 76.3044 385.022 76.3669 385.532C76.4293 386.042 76.2524 386.542 75.8985 386.906L67.3842 395.421C67.0615 395.733 66.6453 395.899 66.2081 395.899H66.1977ZM50.1267 388.853C55.6121 388.853 60.8997 389.998 65.8542 392.256L72.0161 386.095C65.3129 382.483 57.7875 380.588 50.1267 380.588C42.466 380.588 34.9405 382.483 28.2373 386.095L34.3993 392.256C39.3538 389.998 44.6414 388.853 50.1267 388.853Z" fill="white"/>
<path d="M50.1249 476.389C41.1527 476.389 32.3574 473.954 24.6862 469.363C24.2491 469.103 23.9576 468.656 23.8952 468.146C23.8327 467.636 24.0097 467.136 24.3636 466.772L32.8778 458.257C33.3774 457.758 34.1477 457.633 34.7722 457.945C39.5706 460.318 44.7333 461.526 50.1145 461.526C55.4958 461.526 60.6585 460.318 65.4569 457.945C66.0918 457.633 66.8516 457.758 67.3512 458.257L75.8655 466.772C76.2298 467.136 76.3963 467.636 76.3339 468.146C76.2714 468.656 75.98 469.103 75.5428 469.363C67.8717 473.964 59.0764 476.389 50.1041 476.389H50.1249ZM28.2356 467.584C34.9387 471.195 42.4642 473.09 50.1249 473.09C57.7857 473.09 65.3111 471.195 72.0143 467.584L65.8524 461.422C60.8979 463.68 55.6103 464.825 50.1249 464.825C44.6396 464.825 39.352 463.68 34.3975 461.422L28.2356 467.584Z" fill="white"/>
<path d="M91.2328 453.074C90.7957 453.074 90.3793 452.907 90.0671 452.595L81.5528 444.081C81.0532 443.581 80.9283 442.811 81.2406 442.187C83.6137 437.388 84.8211 432.226 84.8211 426.844C84.8211 421.463 83.6137 416.3 81.2406 411.502C80.9283 410.867 81.0532 410.097 81.5528 409.608L90.0671 401.093C90.4314 400.729 90.931 400.562 91.441 400.625C91.951 400.687 92.3986 400.979 92.6588 401.416C97.2594 409.087 99.6846 417.882 99.6846 426.855C99.6846 435.827 97.2594 444.622 92.6588 452.293C92.3986 452.731 91.951 453.022 91.441 453.084C91.3681 453.084 91.3057 453.084 91.2328 453.084V453.074ZM84.7066 442.561L90.8685 448.723C94.4803 442.02 96.3747 434.495 96.3747 426.834C96.3747 419.173 94.4803 411.648 90.8685 404.945L84.7066 411.106C86.9653 416.061 88.1102 421.349 88.1102 426.834C88.1102 432.319 86.9653 437.607 84.7066 442.561Z" fill="white"/>
<path d="M9.02348 453.074C8.95062 453.074 8.88817 453.074 8.82572 453.064C8.31569 453.001 7.86808 452.71 7.60786 452.273C3.00724 444.601 0.582031 435.806 0.582031 426.834C0.582031 417.862 3.00724 409.066 7.60786 401.395C7.86808 400.958 8.31569 400.667 8.82572 400.604C9.33574 400.542 9.83536 400.719 10.1997 401.072L18.7139 409.587C19.2135 410.086 19.3384 410.857 19.0262 411.481C16.653 416.28 15.4456 421.442 15.4456 426.824C15.4456 432.205 16.653 437.367 19.0262 442.166C19.3384 442.801 19.2135 443.571 18.7139 444.06L10.1997 452.574C9.88741 452.887 9.471 453.064 9.03384 453.064L9.02348 453.074ZM9.38776 404.945C5.77596 411.648 3.88161 419.173 3.88161 426.834C3.88161 434.495 5.77596 442.02 9.38776 448.723L15.5497 442.561C13.291 437.607 12.1461 432.319 12.1461 426.834C12.1461 421.349 13.291 416.061 15.5497 411.106L9.38776 404.945Z" fill="white"/>
<path d="M50.1282 388.853C29.1861 388.853 12.1367 405.892 12.1367 426.844C12.1367 447.797 29.1757 464.836 50.1282 464.836C71.0808 464.836 88.1198 447.797 88.1198 426.844C88.1198 405.892 71.0808 388.853 50.1282 388.853ZM71.5075 414.364C73.3082 417.445 74.4011 420.807 74.755 424.377C74.7654 424.523 74.703 424.659 74.5781 424.731C71.8615 426.397 69.4258 428.437 67.3233 430.82C67.2296 430.935 67.0735 430.977 66.9381 430.925L62.2439 429.394C62.1086 429.353 62.0149 429.238 61.994 429.093C61.4632 425.21 60.2559 421.494 58.4031 418.039C58.3407 417.914 58.351 417.768 58.4343 417.654L61.3383 413.657C61.4112 413.563 61.5257 413.5 61.6402 413.5C61.6714 413.5 61.6922 413.5 61.7235 413.5C64.8252 414.187 68.0102 414.416 71.1745 414.156C71.3202 414.146 71.4555 414.219 71.5284 414.344L71.5075 414.364ZM59.4336 429.748C59.444 429.852 59.4127 429.956 59.3503 430.029C56.8834 432.871 53.74 435.15 50.274 436.608C50.1803 436.649 50.0866 436.649 49.9929 436.608C46.5268 435.14 43.3834 432.86 40.9166 430.029C40.8541 429.956 40.8229 429.852 40.8333 429.748C41.3121 425.98 42.4883 422.379 44.3098 419.048C44.3618 418.955 44.4451 418.892 44.5492 418.871C46.3811 418.486 48.2547 418.288 50.1387 418.288C52.0226 418.288 53.8962 418.486 55.7281 418.871C55.8322 418.892 55.9154 418.955 55.9675 419.048C57.789 422.379 58.9548 425.98 59.444 429.748H59.4336ZM58.8715 403.914C58.8715 403.914 58.9964 403.81 59.1213 403.81C59.1629 403.81 59.2149 403.81 59.267 403.841C63.0974 405.361 66.5218 407.859 69.1864 411.054C69.3218 411.211 69.2697 411.377 69.2385 411.44C69.2177 411.492 69.124 411.658 68.9054 411.658C66.5426 411.689 64.1903 411.419 61.9108 410.877C61.8171 410.857 61.7338 410.794 61.6818 410.711C60.464 408.702 59.4856 406.537 58.7778 404.289C58.7154 404.091 58.8298 403.956 58.8819 403.914H58.8715ZM44.8719 402.665C48.3171 401.926 51.9497 401.926 55.395 402.665C55.5303 402.696 55.6448 402.8 55.676 402.936C56.415 406.027 57.612 408.983 59.2254 411.721C59.2982 411.845 59.2878 412.002 59.2045 412.127L56.3214 416.103C56.2381 416.217 56.0924 416.28 55.957 416.248C52.1475 415.478 48.1193 415.478 44.3098 416.248C44.1745 416.28 44.0288 416.217 43.9455 416.103L41.0623 412.127C40.979 412.012 40.9686 411.845 41.0415 411.721C42.6548 408.983 43.8518 406.027 44.5908 402.936C44.6221 402.8 44.7366 402.696 44.8719 402.665ZM31.0804 411.054C33.7451 407.849 37.1695 405.35 40.9998 403.841C41.0519 403.82 41.1039 403.81 41.1456 403.81C41.2809 403.81 41.3642 403.883 41.3954 403.914C41.4474 403.966 41.5619 404.091 41.4994 404.289C40.7917 406.547 39.8133 408.702 38.5955 410.711C38.5434 410.794 38.4602 410.857 38.3665 410.877C36.087 411.419 33.7346 411.689 31.3719 411.658C31.1533 411.658 31.0596 411.492 31.0388 411.44C31.0075 411.377 30.9555 411.211 31.0908 411.054H31.0804ZM28.7593 414.364C28.8217 414.25 28.9466 414.177 29.0819 414.177C29.0819 414.177 29.1028 414.177 29.1132 414.177C32.2878 414.427 35.4729 414.208 38.5643 413.521C38.71 413.49 38.8557 413.542 38.939 413.667L41.8429 417.664C41.9262 417.778 41.9366 417.935 41.8742 418.049C40.0215 421.505 38.814 425.221 38.2832 429.103C38.2624 429.238 38.1687 429.353 38.0334 429.405L33.3391 430.935C33.2038 430.977 33.0477 430.935 32.954 430.831C30.8514 428.447 28.4158 426.407 25.6991 424.742C25.5846 424.669 25.5118 424.534 25.5222 424.388C25.8761 420.818 26.969 417.445 28.7697 414.375L28.7593 414.364ZM29.8938 440.011C29.8314 440.209 29.6545 440.251 29.5816 440.261C29.5087 440.261 29.3422 440.261 29.2277 440.095C27.0106 436.608 25.6991 432.569 25.4389 428.426C25.4285 428.218 25.5638 428.114 25.6263 428.083C25.6887 428.052 25.8553 427.979 26.0218 428.104C27.9474 429.467 29.6961 431.07 31.2261 432.85C31.2886 432.923 31.3198 433.017 31.3094 433.121C31.1221 435.463 30.6433 437.784 29.8834 440.022L29.8938 440.011ZM40.1776 449.514C36.9301 448.088 34.0677 445.996 31.6737 443.311C31.58 443.207 31.5488 443.051 31.6009 442.926C32.8187 439.99 33.5889 436.899 33.8907 433.735C33.9011 433.589 34.0053 433.464 34.1406 433.423L38.7828 431.913C38.7828 431.913 38.8556 431.893 38.8973 431.893C39.0014 431.893 39.0951 431.934 39.1679 432.017C41.7701 434.932 45.028 437.305 48.5981 438.877C48.7334 438.939 48.8167 439.064 48.8167 439.21V444.091C48.8167 444.237 48.7334 444.372 48.5981 444.425C45.6837 445.684 42.9775 447.381 40.5523 449.452C40.4482 449.546 40.2921 449.566 40.1672 449.504L40.1776 449.514ZM56.5503 450.545C56.5399 450.618 56.4879 450.784 56.2797 450.836C52.262 451.856 48.0153 451.856 43.9975 450.836C43.7998 450.784 43.7373 450.618 43.7269 450.545C43.7165 450.472 43.6957 450.305 43.8726 450.17C45.767 448.765 47.8279 447.589 50.0033 446.683C50.097 446.642 50.1907 446.642 50.2843 446.683C52.4493 447.589 54.5103 448.765 56.415 450.17C56.5816 450.295 56.5712 450.472 56.5608 450.545H56.5503ZM68.614 443.321C66.22 446.007 63.3576 448.088 60.1101 449.514C59.9748 449.577 59.8291 449.546 59.725 449.462C57.2998 447.391 54.6039 445.694 51.6791 444.435C51.5438 444.372 51.4605 444.248 51.4605 444.102V439.22C51.4605 439.074 51.5438 438.939 51.6791 438.887C55.2493 437.315 58.5176 434.942 61.1093 432.028C61.1822 431.945 61.2759 431.903 61.38 431.903C61.4216 431.903 61.4528 431.903 61.4944 431.924L66.1367 433.433C66.272 433.475 66.3761 433.6 66.3865 433.745C66.6884 436.909 67.4586 439.99 68.6764 442.936C68.7285 443.061 68.7076 443.217 68.6036 443.321H68.614ZM71.0496 440.105C70.9351 440.282 70.7582 440.282 70.6957 440.271C70.6228 440.271 70.4563 440.219 70.3834 440.022C69.634 437.784 69.1552 435.463 68.9574 433.121C68.9574 433.027 68.9783 432.923 69.0407 432.85C70.5708 431.07 72.3194 429.478 74.245 428.104C74.3179 428.052 74.3908 428.031 74.4532 428.031C74.5365 428.031 74.5989 428.062 74.6406 428.083C74.703 428.114 74.8487 428.218 74.8279 428.426C74.5677 432.569 73.2562 436.608 71.0392 440.095L71.0496 440.105Z" fill="white"/>
<path d="M49.9826 352.932C37.2841 352.932 24.5959 348.103 14.9263 338.433C-4.40252 319.104 -4.40252 287.66 14.9263 268.331C24.2941 258.963 36.7428 253.811 49.9826 253.811C63.2224 253.811 75.6711 258.963 85.0389 268.331C104.368 287.66 104.368 319.104 85.0389 338.433C75.3797 348.092 62.6811 352.932 49.9826 352.932ZM17.5285 335.831C35.4209 353.724 64.5339 353.724 82.4263 335.831C100.319 317.939 100.319 288.826 82.4263 270.933C73.7559 262.263 62.2335 257.496 49.9722 257.496C37.7108 257.496 26.1884 262.273 17.5181 270.933C-0.374391 288.826 -0.374391 317.939 17.5181 335.831H17.5285Z" fill="#EBF29D"/>
<path d="M49.3269 321.935C49.5039 322.362 49.9202 322.612 50.3574 322.612C50.5031 322.612 50.6489 322.581 50.7946 322.529C54.2919 321.061 57.4769 318.792 59.9958 315.961C60.4017 315.503 60.3601 314.795 59.9021 314.389C59.4441 313.983 58.7364 314.025 58.3304 314.483C56.0301 317.075 53.1261 319.146 49.9306 320.478C49.3686 320.718 49.0979 321.373 49.3373 321.935H49.3269Z" fill="#EBF29D"/>
<path d="M68.8729 286.244L50.3872 278.854C50.1166 278.75 49.8251 278.75 49.5545 278.854L31.0688 286.244C30.642 286.411 30.3713 286.817 30.3713 287.275V300.514C30.3922 312.734 38.1154 323.778 49.5857 327.983C49.7106 328.024 49.8355 328.045 49.9708 328.045C50.1061 328.045 50.231 328.024 50.3559 327.983C61.8263 323.767 69.5495 312.734 69.5703 300.514V287.275C69.5703 286.817 69.2997 286.411 68.8729 286.244ZM67.3428 300.514C67.322 311.631 60.3482 321.758 49.9812 325.745C39.6142 321.758 32.63 311.631 32.6092 300.514V288.034L49.9812 281.092L67.3428 288.034V300.514Z" fill="#EBF29D"/>
<path d="M42.2585 287.982C41.9878 287.868 41.686 287.868 41.4049 287.982L37.0021 289.741C36.5754 289.908 36.3047 290.314 36.3047 290.772V295.466C36.3047 296.08 36.8043 296.58 37.4184 296.58C38.0325 296.58 38.5322 296.08 38.5322 295.466V291.532L42.2272 290.054C42.5082 289.939 42.7164 289.731 42.8413 289.45C42.9558 289.179 42.9558 288.877 42.8413 288.596C42.7268 288.315 42.5187 288.107 42.248 287.982H42.2585Z" fill="#EBF29D"/>
<path d="M78.1259 275.232C70.6109 267.706 60.6082 263.574 49.9706 263.574C39.333 263.574 29.3407 267.717 21.8152 275.232C6.29596 290.751 6.29596 316.013 21.8152 331.543C29.5801 339.307 39.7701 343.179 49.9706 343.179C60.171 343.179 70.3611 339.297 78.1259 331.543C93.6452 316.023 93.6452 290.762 78.1259 275.232ZM72.6198 300.514C72.651 314.639 63.6267 326.994 50.1684 331.272C50.0434 331.314 49.9081 331.314 49.7728 331.272C36.3144 326.994 27.2902 314.639 27.3214 300.514V284.891C27.3214 284.631 27.4775 284.392 27.7273 284.287L49.7312 275.492C49.8041 275.461 49.8873 275.451 49.9706 275.451C50.0539 275.451 50.1371 275.461 50.21 275.492L72.2138 284.298C72.4636 284.392 72.6198 284.631 72.6198 284.902V300.525V300.514Z" fill="#EBF29D"/>
<path d="M50.3967 230.621C23.074 230.621 0.851562 208.388 0.851562 181.076C0.851562 153.763 23.0844 131.531 50.3967 131.531C77.709 131.531 99.9418 153.763 99.9418 181.076C99.9418 208.388 77.709 230.621 50.3967 230.621ZM50.3967 134.83C24.8955 134.83 4.15108 155.574 4.15108 181.076C4.15108 206.577 24.8955 227.321 50.3967 227.321C75.8979 227.321 96.6423 206.577 96.6423 181.076C96.6423 155.574 75.8979 134.83 50.3967 134.83Z" fill="#11F8A5"/>
<path d="M82.7174 145.729L67.3792 161.067L70.3968 164.085L85.7351 148.746L82.7174 145.729Z" fill="#11F8A5"/>
<path d="M29.9242 198.521L14.5859 213.859L17.6035 216.876L32.9418 201.538L29.9242 198.521Z" fill="#11F8A5"/>
<path d="M70.8616 198.536L67.844 201.553L83.1822 216.891L86.1999 213.874L70.8616 198.536Z" fill="#11F8A5"/>
<path d="M17.5999 145.267L14.5823 148.285L29.9132 163.616L32.9308 160.598L17.5999 145.267Z" fill="#11F8A5"/>
<path d="M62.4808 182.408C63.48 181.409 63.48 179.795 62.4808 178.806L60.3574 176.693C59.3582 175.694 57.7449 175.694 56.7561 176.693L55.6111 177.838L54.2892 176.516C53.29 175.517 51.6766 175.517 50.6878 176.516L49.5429 177.672L48.221 176.34C47.2217 175.34 45.6084 175.34 44.6195 176.34L37.5937 183.365C37.5417 183.417 37.5417 183.501 37.5937 183.563C38.5305 184.5 40.0606 184.5 41.0078 183.563L45.5355 179.035C46.0247 178.546 46.8158 178.546 47.305 179.035L47.6381 179.368C47.7005 179.431 47.7005 179.525 47.6381 179.587L43.8597 183.365C43.8077 183.417 43.8077 183.501 43.8597 183.563C44.7965 184.5 46.3266 184.5 47.2738 183.563L51.6142 179.223C52.1034 178.734 52.8945 178.734 53.3837 179.223L53.7167 179.556C53.7688 179.608 53.7688 179.691 53.7167 179.754L50.0737 183.397C50.0217 183.449 50.0217 183.532 50.0737 183.594C51.0105 184.531 52.5405 184.531 53.4877 183.594L57.6824 179.4C58.1716 178.91 58.9626 178.91 59.4519 179.4L60.1701 180.118C60.4511 180.399 60.4511 180.867 60.1701 181.148L60.0556 181.263C59.7745 181.544 59.3062 181.544 59.0251 181.263L58.0987 180.336C58.0467 180.284 57.9634 180.284 57.901 180.336L56.2981 181.939C56.246 181.991 56.246 182.075 56.2981 182.137L57.7449 183.584C58.7441 184.583 60.3574 184.583 61.3462 183.584L62.4912 182.439L62.4808 182.408Z" fill="#11F8A5"/>
<path d="M50.3978 143.084C29.414 143.084 12.4062 160.092 12.4062 181.076C12.4062 202.059 29.414 219.067 50.3978 219.067C71.3816 219.067 88.3893 202.059 88.3893 181.076C88.3893 160.092 71.3816 143.084 50.3978 143.084ZM51.9486 154.815C58.0481 155.168 63.5855 157.604 67.8738 161.414L62.3885 166.899C59.5261 164.474 55.9143 162.902 51.9486 162.569V154.815ZM48.8572 154.815V162.569C44.8916 162.892 41.2798 164.474 38.4174 166.899L32.932 161.414C37.2204 157.604 42.7578 155.168 48.8572 154.815ZM30.7463 163.599L36.2316 169.085C33.8064 171.947 32.2347 175.559 31.9016 179.525H24.1472C24.5011 173.425 26.9367 167.888 30.7463 163.599ZM24.1472 182.616H31.9016C32.2243 186.582 33.8064 190.193 36.2316 193.056L30.7463 198.541C26.9367 194.253 24.5011 188.715 24.1472 182.616ZM48.8572 207.326C42.7578 206.972 37.2204 204.537 32.932 200.727L38.4174 195.242C41.2798 197.667 44.8916 199.239 48.8572 199.572V207.326ZM34.4309 181.065C34.4309 172.249 41.5817 165.098 50.3978 165.098C59.2139 165.098 66.3646 172.249 66.3646 181.065C66.3646 189.881 59.2139 197.032 50.3978 197.032C41.5817 197.032 34.4309 189.881 34.4309 181.065ZM51.9486 207.326V199.572C55.9143 199.249 59.5261 197.667 62.3885 195.242L67.8738 200.727C63.5855 204.537 58.0481 206.972 51.9486 207.326ZM70.0596 198.541L64.5743 193.056C66.9995 190.193 68.5712 186.582 68.9043 182.616H76.6587C76.3048 188.715 73.8692 194.253 70.0596 198.541ZM68.9043 179.525C68.5816 175.559 66.9995 171.947 64.5743 169.085L70.0596 163.599C73.8692 167.888 76.3048 173.425 76.6587 179.525H68.9043Z" fill="#11F8A5"/>
<path d="M15.4881 86.2598C-4.00158 66.7701 -4.00158 35.0614 15.4881 15.5716C34.9779 -3.91809 66.6866 -3.91809 86.1763 15.5716C105.666 35.0614 105.666 66.7701 86.1763 86.2598C66.6866 105.75 34.9779 105.75 15.4881 86.2598ZM83.8207 17.9273C65.6296 -0.263762 36.0348 -0.263762 17.8485 17.9273C-0.342528 36.1183 -0.342528 65.7131 17.8485 83.8995C36.0396 102.09 65.6344 102.09 83.8207 83.8995C102.012 65.7084 102.012 36.1136 83.8207 17.9273Z" fill="white"/>
<path d="M84.3638 40.313C84.1884 40.1376 84.0462 39.9149 83.9657 39.6684C82.2357 34.5495 79.4108 30.0136 75.5716 26.1744C71.7372 22.34 67.1965 19.5151 62.0776 17.7804C61.3998 17.5481 60.9448 16.9178 60.9448 16.2021V4.05417C60.9448 3.54228 61.1818 3.05882 61.5847 2.74126C61.9923 2.4237 62.5184 2.31469 63.0113 2.43792C71.7609 4.62767 79.771 9.16832 86.1696 15.5717C92.5682 21.975 97.1089 29.9804 99.2987 38.7299C99.4219 39.2276 99.3081 39.7537 98.9953 40.1613C98.6777 40.569 98.1943 40.8012 97.6824 40.8012H85.5345C85.0795 40.8012 84.6624 40.6164 84.3543 40.3083L84.3638 40.313ZM77.9272 23.8188C81.8422 27.7338 84.7951 32.3218 86.7194 37.4692H95.5069C93.2982 30.1131 89.2836 23.3922 83.8187 17.9273C78.3538 12.4624 71.6329 8.44789 64.2816 6.24392V15.0314C69.4289 16.9509 74.017 19.9038 77.932 23.8235L77.9272 23.8188Z" fill="white"/>
<path d="M15.4867 86.2597C9.0881 79.8611 4.5427 71.851 2.35295 63.1015C2.22971 62.6038 2.34347 62.0777 2.6563 61.6748C2.97386 61.2672 3.45729 61.0349 3.96918 61.0349H16.1171C16.8328 61.0349 17.4679 61.4899 17.6954 62.1677C19.4254 67.2866 22.2503 71.8225 26.0894 75.6617C29.9239 79.4961 34.4646 82.321 39.5835 84.0557C40.2612 84.2832 40.7162 84.9184 40.7162 85.6341V97.782C40.7162 98.2939 40.4792 98.7773 40.0764 99.0949C39.6687 99.4124 39.1426 99.5214 38.645 99.3982C29.8954 97.2084 21.8901 92.6678 15.4867 86.2692V86.2597ZM6.15421 64.3622C8.36292 71.7182 12.3774 78.4392 17.8423 83.9041C23.3072 89.3689 30.0282 93.3835 37.3842 95.5922V86.8048C32.2369 84.8852 27.6488 81.9323 23.7338 78.0173C19.8188 74.1023 16.866 69.5143 14.9416 64.3669H6.15421V64.3622Z" fill="white"/>
<path d="M61.433 98.9528C61.1202 98.64 60.9448 98.2182 60.9448 97.7727V85.6248C60.9448 84.9091 61.3998 84.274 62.0776 84.0465C67.1965 82.3165 71.7324 79.4916 75.5716 75.6524C79.4108 71.8132 82.2309 67.2773 83.9656 62.1584C84.1931 61.4806 84.8283 61.0256 85.544 61.0256H97.6919C98.2038 61.0256 98.6872 61.2626 99.0048 61.6655C99.3223 62.0684 99.4314 62.5992 99.3081 63.0921C97.1136 71.8417 92.573 79.847 86.1743 86.2504C79.7757 92.6538 71.7656 97.1944 63.0161 99.3842C62.5184 99.5074 61.9923 99.3936 61.5894 99.0808C61.5373 99.0334 61.4852 98.9908 61.4378 98.9434L61.433 98.9528ZM64.2769 86.8002V95.5877C71.6329 93.3789 78.3538 89.3644 83.8187 83.8995C89.2836 78.4346 93.2934 71.7137 95.5069 64.3576H86.7194C84.7998 69.505 81.847 74.0883 77.9272 78.008C74.0122 81.923 69.4242 84.8806 64.2769 86.8002Z" fill="white"/>
<path d="M2.78974 40.313C2.74234 40.2656 2.69496 40.2135 2.65704 40.1613C2.33948 39.7585 2.23046 39.2276 2.35369 38.7299C4.54344 29.9804 9.0841 21.9703 15.4875 15.5717C21.8908 9.17305 29.8962 4.62766 38.6457 2.43791C39.1434 2.31468 39.6695 2.42842 40.0724 2.74124C40.4752 3.05881 40.7123 3.54227 40.7123 4.05416V16.2021C40.7123 16.9178 40.2572 17.5529 39.5795 17.7804C34.4606 19.5104 29.9246 22.3352 26.0854 26.1744C22.251 30.0088 19.4262 34.5495 17.6914 39.6684C17.4639 40.3462 16.8288 40.8012 16.1131 40.8012H3.96521C3.51967 40.8012 3.09307 40.6258 2.78499 40.3177L2.78974 40.313ZM37.3802 6.2439C30.0242 8.45261 23.3032 12.4672 17.8383 17.9321C12.3734 23.3969 8.36366 30.1179 6.15021 37.4739H14.9376C16.8572 32.3266 19.8101 27.7433 23.7298 23.8235C27.6448 19.9085 32.2329 16.9557 37.3802 15.0313V6.2439Z" fill="white"/>
<path d="M77.9314 23.8188C62.9918 8.87918 38.6771 8.87444 23.7375 23.8188C8.79315 38.7631 8.79789 63.0731 23.7375 78.0127C38.6771 92.9523 62.9871 92.9571 77.9314 78.0127C92.8757 63.0684 92.871 38.7584 77.9314 23.8188Z" fill="white"/>
<path d="M64.6503 64.5933L37.1226 64.7759C35.963 64.7836 35.0292 65.7298 35.0369 66.8894L35.0434 67.8705C35.0511 69.0301 35.9974 69.964 37.157 69.9563L64.6846 69.7737C65.8442 69.766 66.7781 68.8197 66.7704 67.6601L66.7639 66.679C66.7562 65.5194 65.8099 64.5856 64.6503 64.5933Z" fill="#191D0A"/>
<path d="M40.8732 47.9773C40.5746 47.9773 40.2713 47.9109 39.9964 47.7782L37.8492 46.7402C36.9155 46.2852 36.4889 45.1809 36.8776 44.2187L37.8635 41.7635C38.1668 41.0147 38.8825 40.5265 39.6883 40.5217C40.0343 40.5217 40.3755 40.607 40.6788 40.7824L43.2383 42.2422C43.717 42.5124 44.063 42.9816 44.1862 43.522C44.3095 44.0623 44.2005 44.6311 43.8876 45.0861L42.4847 47.1194C42.1197 47.6503 41.513 47.9726 40.8684 47.9726L40.8732 47.9773Z" fill="#191D0A"/>
<path d="M60.6919 47.8446C60.0473 47.8446 59.4359 47.5365 59.0663 47.0104L57.6775 45.0529C57.3552 44.6026 57.2415 44.0338 57.3552 43.4935C57.469 42.9532 57.8102 42.4792 58.2889 42.1996L60.9289 40.6497C61.2275 40.4743 61.5688 40.3795 61.9148 40.3748C62.7206 40.3701 63.4458 40.8488 63.7586 41.5929L64.7539 43.977C65.152 44.9344 64.7397 46.0482 63.8155 46.5127L61.5688 47.636C61.2987 47.7687 60.9953 47.8446 60.6967 47.8446H60.6919Z" fill="#191D0A"/>
<path d="M38.7106 62.9357C37.502 62.9452 36.4166 62.1868 36.0043 61.0493L31.4115 48.4085C31.1176 48.5506 30.8048 48.6597 30.4872 48.7402C30.1128 48.835 29.7336 48.8824 29.3497 48.8824C29.1269 48.8824 28.9089 48.8729 28.6956 48.8445C26.302 48.5412 24.4868 46.4889 24.4725 44.0716C24.4536 41.3984 26.6148 39.2087 29.288 39.1897C31.9612 39.1707 34.151 41.3321 34.1652 44.0053C34.1652 44.6214 34.0609 45.2139 33.8429 45.7684C33.7244 46.0718 33.5775 46.3609 33.4069 46.6358L42.1422 50.8636L48.8252 41.1804C48.5456 41.0619 48.2754 40.915 48.0194 40.7396C47.536 40.4125 47.1141 40.0049 46.7729 39.5262C46.1946 38.711 45.8818 37.7488 45.8771 36.7535C45.8581 34.0803 48.0194 31.8905 50.6926 31.8716C50.8111 31.8716 50.9344 31.8716 51.0529 31.8811C53.4464 32.0422 55.3802 33.9618 55.5556 36.3554C55.6362 37.4881 55.3376 38.5735 54.693 39.4978C54.3517 39.9812 53.9346 40.3936 53.4559 40.7206C53.2047 40.896 52.9345 41.0429 52.6549 41.1614L59.4564 50.7451L68.0495 46.4462C67.8883 46.1381 67.7604 45.8158 67.6656 45.4793C67.5518 45.0717 67.4902 44.6451 67.4902 44.2138C67.4902 44.0195 67.4997 43.8252 67.5186 43.6356C67.7935 41.1994 69.8506 39.3509 72.301 39.3366C74.9742 39.3177 77.164 41.479 77.1782 44.1522C77.1971 46.7022 75.2159 48.8445 72.6707 49.0199L72.3674 49.0294C71.8744 49.0294 71.391 48.963 70.9218 48.8208C70.6184 48.726 70.3245 48.6075 70.0496 48.4559L65.7365 60.8502C65.3431 61.9925 64.2624 62.7603 63.0538 62.7698L38.7106 62.9309V62.9357Z" fill="#191D0A"/>
</svg>
